<svg width="49" height="49" viewBox="0 0 49 49" fill="none" xmlns="http://www.w3.org/2000/svg">
<circle cx="24.5" cy="24.5" r="24.5" fill="#374B71"/>
<path d="M21.9318 36V18.5455H26.7727V36H21.9318ZM24.3636 16.2955C23.6439 16.2955 23.0265 16.0568 22.5114 15.5795C22.0038 15.0947 21.75 14.5152 21.75 13.8409C21.75 13.1742 22.0038 12.6023 22.5114 12.125C23.0265 11.6402 23.6439 11.3977 24.3636 11.3977C25.0833 11.3977 25.697 11.6402 26.2045 12.125C26.7197 12.6023 26.9773 13.1742 26.9773 13.8409C26.9773 14.5152 26.7197 15.0947 26.2045 15.5795C25.697 16.0568 25.0833 16.2955 24.3636 16.2955Z" fill="#F5F6F8"/>
</svg>
