<svg width="34" height="42" viewBox="0 0 34 42" fill="none" xmlns="http://www.w3.org/2000/svg">
<path d="M0 3.28294C0 1.78495 1.58614 0.818655 2.91729 1.5057L14.4173 7.44118C15.0823 7.78439 15.5 8.4701 15.5 9.21842V38.7171C15.5 40.215 13.9139 41.1813 12.5827 40.4943L1.08272 34.5588C0.417746 34.2156 0 33.5299 0 32.7816V3.28294Z" fill="#F5F6F8"/>
<mask id="path-2-inside-1_121_17" fill="white">
<path fill-rule="evenodd" clip-rule="evenodd" d="M2 3H24V13H26V3C26 1.89543 25.1046 1 24 1H2C0.895431 1 0 1.89543 0 3V32C0 33.1046 0.89543 34 2 34H24C25.1046 34 26 33.1046 26 32V23H24V32H2L2 3Z"/>
</mask>
<path d="M24 3H26C26 1.89543 25.1046 1 24 1V3ZM2 3V1C0.895431 1 4.54052e-09 1.89543 0 3L2 3ZM24 13H22C22 14.1046 22.8954 15 24 15V13ZM26 13V15C27.1046 15 28 14.1046 28 13H26ZM26 23H28C28 21.8954 27.1046 21 26 21V23ZM24 23V21C22.8954 21 22 21.8954 22 23H24ZM24 32V34C25.1046 34 26 33.1046 26 32H24ZM2 32L-1.19209e-07 32C-1.2139e-07 32.5304 0.210714 33.0391 0.585786 33.4142C0.960859 33.7893 1.46957 34 2 34V32ZM24 1H2V5H24V1ZM26 13V3H22V13H26ZM24 15H26V11H24V15ZM28 13V3H24V13H28ZM28 3C28 0.790862 26.2091 -1 24 -1V3H28ZM24 -1H2V3H24V-1ZM2 -1C-0.209139 -1 -2 0.790861 -2 3H2V-1ZM-2 3V32H2V3H-2ZM-2 32C-2 34.2091 -0.20914 36 2 36V32H2H-2ZM2 36H24V32H2V36ZM24 36C26.2091 36 28 34.2091 28 32H24V36ZM28 32V23H24V32H28ZM26 21H24V25H26V21ZM26 32V23H22V32H26ZM2 34H24V30H2V34ZM0 3L-1.19209e-07 32L4 32L4 3L0 3Z" fill="#F5F6F8" mask="url(#path-2-inside-1_121_17)"/>
<line x1="21" y1="18" x2="32" y2="18" stroke="#F5F6F8" stroke-width="2" stroke-linecap="round"/>
<path d="M30 15L32.5 18L30 21" stroke="#F5F6F8" stroke-width="2" stroke-linecap="round" stroke-linejoin="round"/>
</svg>
